<?xml version="1.0" encoding="utf-8"?>
<!-- Generator: Adobe Illustrator 16.0.0, SVG Export Plug-In . SVG Version: 6.00 Build 0)  -->
<!DOCTYPE svg PUBLIC "-//W3C//DTD SVG 1.1//EN" "http://www.w3.org/Graphics/SVG/1.1/DTD/svg11.dtd">
<svg version="1.1" id="レイヤー_1" xmlns="http://www.w3.org/2000/svg" xmlns:xlink="http://www.w3.org/1999/xlink" x="0px"
	 y="0px" width="1080px" height="150px" viewBox="0 0 1080 150" enable-background="new 0 0 1080 150" xml:space="preserve">
<g>
	<defs>
		<rect id="SVGID_1_" x="283.667" y="-12.667" width="343.333" height="201.333"/>
	</defs>
	<clipPath id="SVGID_2_">
		<use xlink:href="#SVGID_1_"  overflow="visible"/>
	</clipPath>
	<g clip-path="url(#SVGID_2_)">
		<g>
			<g>
				<path fill="#2E3338" d="M370.533,119.061c-13.503,0-21.565-10.312-21.565-27.582c0-18.543,9.872-30.525,25.149-30.525
					c5.186,0,10.446,0.915,14.432,2.509l3.429,1.372V31.79l6.393-1.006v86.997h-4.456l-1.936-12.146l-3.522,4.208
					C383.265,116.045,377.402,119.061,370.533,119.061z M374.501,65.554c-9.191,0-19.013,6.676-19.013,25.413
					c0,13.96,6.559,22.98,16.708,22.98c7.18,0,13.308-3.736,19.286-11.758l0.495-0.665V69.983l-1.358-0.697
					C385.253,66.53,381.035,65.554,374.501,65.554z"/>
			</g>
			<g>
				<path fill="#2E3338" d="M419.624,117.78V61.721h6.393v56.059H419.624z M422.884,44.433c-2.645,0-4.796-2.094-4.796-4.668
					c0-2.6,2.196-4.796,4.796-4.796c2.574,0,4.668,2.152,4.668,4.796C427.552,42.338,425.458,44.433,422.884,44.433z"/>
			</g>
			<g>
				<path fill="#2E3338" d="M463.332,119.061c-7.015,0-14.662-2.282-19.529-4.647l0.809-5.23c4.905,2.794,11.627,5.405,19.616,5.405
					c9.34,0,14.917-3.949,14.917-10.564c0-8.187-6.482-10.382-16.372-12.797c-13.937-3.485-18.19-7.314-18.19-16.388
					c0-8.611,7.638-14.397,19.005-14.397c6.173,0,11.985,1.055,17.305,3.139l-0.902,5.412c-5.417-2.532-11.33-3.95-16.659-3.95
					c-12.06,0-12.997,7.302-12.997,9.54c0,6.302,5.57,8.979,14.559,11.256c15.329,3.897,20.003,7.967,20.003,17.418
					C484.897,113.3,477.037,119.061,463.332,119.061z"/>
			</g>
			<g>
				<path fill="#2E3338" d="M523.746,119.061c-15.986,0-25.917-11.206-25.917-29.246c0-17.843,10.273-29.373,26.173-29.373
					c6.897,0,12.696,1.453,17.263,4.322l-0.821,5.493c-5.086-3.282-10.441-4.83-16.57-4.83c-12.043,0-19.525,9.296-19.525,24.262
					c0,15.271,7.777,24.389,20.805,24.389c6.137,0,11.114-1.451,15.996-4.757l0.746,4.59
					C536.669,117.509,531.15,119.061,523.746,119.061z"/>
			</g>
			<g>
				<path fill="#2E3338" d="M580.834,119.061c-15.511,0-25.533-11.479-25.533-29.246c0-17.843,10.022-29.373,25.533-29.373
					c15.744,0,25.917,11.53,25.917,29.373C606.751,107.581,596.578,119.061,580.834,119.061z M580.834,65.042
					c-11.729,0-19.014,9.492-19.014,24.772c0,15.049,7.463,24.773,19.014,24.773c11.964,0,19.396-9.492,19.396-24.773
					C600.23,74.766,592.617,65.042,580.834,65.042z"/>
			</g>
			<g>
				<path d="M623.652,117.78V61.721h4.444l2.615,16.91l3.563-5.661c3.16-5.019,8.634-11.016,17.176-12.309l0.981,5.953
					c-9.186,1.447-17.664,7.67-22.117,16.437l-0.271,0.533v34.196H623.652z"/>
			</g>
			<g>
				<path d="M688.224,118.549c-8.27,0-14.267-1.167-21.31-3.208V31.79l6.393-1.006V72.56l4.295-4.43
					c5.017-5.173,10.417-7.688,16.51-7.688c13.302,0,21.565,10.569,21.565,27.582C715.677,107.423,705.671,118.549,688.224,118.549z
					 M692.447,65.554c-6.539,0-12.794,3.675-18.593,10.923l-0.548,0.685v33.856l1.64,0.601c3.981,1.461,7.108,2.202,13.148,2.202
					c9.608,0,21.062-4.387,21.062-25.285C709.156,74.575,702.598,65.554,692.447,65.554z"/>
			</g>
		</g>
	</g>
</g>
<g>
	<defs>
		<rect id="SVGID_3_" x="610.334" y="8" width="268" height="246"/>
	</defs>
	<clipPath id="SVGID_4_">
		<use xlink:href="#SVGID_3_"  overflow="visible"/>
	</clipPath>
	<g clip-path="url(#SVGID_4_)">
		<g>
			<path fill="#2E3338" d="M391.782,120.28l-1.408-8.833c-4.608,5.505-10.88,10.113-19.841,10.113
				c-13.185,0-24.065-9.601-24.065-30.082c0-22.272,12.8-33.025,27.649-33.025c6.017,0,11.521,1.152,15.361,2.688v-31.49
				l11.393-1.792v92.42H391.782z M389.478,71.51c-4.736-2.432-8.448-3.456-14.977-3.456c-9.601,0-16.513,7.809-16.513,22.913
				c0,13.441,6.016,20.48,14.208,20.48c7.041,0,12.417-4.224,17.281-10.752V71.51z"/>
			<path fill="#2E3338" d="M422.884,46.933c-3.968,0-7.296-3.2-7.296-7.168s3.328-7.296,7.296-7.296s7.168,3.328,7.168,7.296
				S426.852,46.933,422.884,46.933z M417.124,120.28V59.221h11.393v61.059H417.124z"/>
			<path fill="#2E3338" d="M463.332,121.561c-8.064,0-17.025-2.816-22.273-5.76l1.664-10.754c5.76,3.969,13.185,7.041,21.505,7.041
				c7.808,0,12.417-2.944,12.417-8.064c0-5.633-3.456-7.68-14.465-10.368c-14.336-3.585-20.097-7.937-20.097-18.817
				c0-9.729,8.192-16.897,21.505-16.897c7.552,0,14.336,1.536,20.097,4.096l-1.792,10.752c-5.376-3.072-12.161-5.248-18.561-5.248
				c-6.913,0-10.497,2.688-10.497,7.04c0,4.096,3.072,6.4,12.672,8.832c15.105,3.841,21.889,8.193,21.889,19.842
				C487.397,114.393,479.077,121.561,463.332,121.561z"/>
			<path fill="#2E3338" d="M523.746,121.561c-16.385,0-28.417-11.393-28.417-31.746c0-20.865,12.8-31.873,28.673-31.873
				c8.96,0,15.36,2.304,19.968,5.632l-1.664,11.136c-5.632-4.608-11.392-6.784-18.432-6.784c-9.985,0-17.025,7.552-17.025,21.762
				c0,14.848,7.552,21.889,18.305,21.889c6.145,0,11.521-1.408,17.793-6.785l1.664,10.241
				C538.339,119.768,531.938,121.561,523.746,121.561z"/>
			<path fill="#2E3338" d="M580.834,121.561c-16.258,0-28.033-11.648-28.033-31.746c0-20.097,11.775-31.873,28.033-31.873
				c16.385,0,28.417,11.776,28.417,31.873C609.251,109.912,597.219,121.561,580.834,121.561z M580.834,67.542
				c-11.009,0-16.514,9.472-16.514,22.272c0,12.545,5.761,22.273,16.514,22.273c11.264,0,16.896-9.473,16.896-22.273
				C597.73,77.271,591.842,67.542,580.834,67.542z"/>
			<path fill="#CC342D" d="M632.545,84.183v36.098h-11.393V59.221h9.088l1.92,12.417c4.353-6.913,11.393-13.185,21.377-13.697
				l1.793,10.88C645.217,69.334,636.641,76.118,632.545,84.183z"/>
			<path fill="#CC342D" d="M688.224,121.049c-9.217,0-15.745-1.408-23.81-3.841V29.652l11.393-1.792v38.53
				c4.096-4.224,9.984-8.448,18.305-8.448c13.185,0,24.065,9.729,24.065,30.082C718.177,110.296,705.888,121.049,688.224,121.049z
				 M692.447,68.054c-6.4,0-12.032,4.224-16.641,9.984v31.233c3.84,1.408,6.656,2.049,12.288,2.049
				c11.905,0,18.562-7.041,18.562-22.785C706.656,75.222,700.64,68.054,692.447,68.054z"/>
		</g>
	</g>
</g>
<g>
</g>
<g>
</g>
<g>
</g>
<g>
</g>
<g>
</g>
<g>
</g>
<g>
</g>
<g>
</g>
<g>
</g>
<g>
</g>
<g>
</g>
<g>
</g>
<g>
</g>
<g>
</g>
<g>
</g>
</svg>
